<svg width="100" height="100" viewBox="0 0 100 100" xmlns="http://www.w3.org/2000/svg">
  <defs>
    <pattern id="mandalaPattern" x="0" y="0" width="100" height="100" patternUnits="userSpaceOnUse">
      <circle cx="50" cy="50" r="40" fill="none" stroke="rgba(156, 81, 253, 0.1)" stroke-width="0.5"/>
      <circle cx="50" cy="50" r="30" fill="none" stroke="rgba(156, 81, 253, 0.1)" stroke-width="0.5"/>
      <circle cx="50" cy="50" r="20" fill="none" stroke="rgba(156, 81, 253, 0.1)" stroke-width="0.5"/>
      <circle cx="50" cy="50" r="10" fill="none" stroke="rgba(156, 81, 253, 0.1)" stroke-width="0.5"/>
      
      <path d="M50,10 L50,90" stroke="rgba(156, 81, 253, 0.1)" stroke-width="0.3"/>
      <path d="M10,50 L90,50" stroke="rgba(156, 81, 253, 0.1)" stroke-width="0.3"/>
      <path d="M22.93,22.93 L77.07,77.07" stroke="rgba(156, 81, 253, 0.1)" stroke-width="0.3"/>
      <path d="M22.93,77.07 L77.07,22.93" stroke="rgba(156, 81, 253, 0.1)" stroke-width="0.3"/>
      
      <path d="M50,10 Q70,30 90,50 Q70,70 50,90 Q30,70 10,50 Q30,30 50,10" fill="none" stroke="rgba(156, 81, 253, 0.05)" stroke-width="0.3"/>
      
      <circle cx="50" cy="10" r="1" fill="rgba(156, 81, 253, 0.2)"/>
      <circle cx="50" cy="90" r="1" fill="rgba(156, 81, 253, 0.2)"/>
      <circle cx="10" cy="50" r="1" fill="rgba(156, 81, 253, 0.2)"/>
      <circle cx="90" cy="50" r="1" fill="rgba(156, 81, 253, 0.2)"/>
      <circle cx="22.93" cy="22.93" r="1" fill="rgba(156, 81, 253, 0.2)"/>
      <circle cx="77.07" cy="77.07" r="1" fill="rgba(156, 81, 253, 0.2)"/>
      <circle cx="22.93" cy="77.07" r="1" fill="rgba(156, 81, 253, 0.2)"/>
      <circle cx="77.07" cy="22.93" r="1" fill="rgba(156, 81, 253, 0.2)"/>
    </pattern>
  </defs>
  <rect x="0" y="0" width="100" height="100" fill="url(#mandalaPattern)"/>
</svg>